<svg width="32" height="32" viewBox="0 0 32 32" fill="none" xmlns="http://www.w3.org/2000/svg">
<rect width="32" height="32" rx="7.11111" fill="#273C27"/>
<path d="M13.44 23.2632C13.4776 23.1764 13.5582 23.0732 13.6174 23.0297C13.7034 22.9754 14.1711 22.9591 18.2678 22.9591L18.5903 23.285V27.8466L18.2785 28.1724H13.698L13.4023 27.9117L13.3862 25.6635C13.3755 23.9366 13.3862 23.3827 13.44 23.2632Z" fill="#379936"/>
<path d="M7.19284 23.2958C7.19284 23.2578 7.25735 23.1655 7.32724 23.0949L7.45627 22.9591H9.75727C11.483 22.9646 12.0798 22.9809 12.1443 23.0297C12.1927 23.0677 12.2572 23.1492 12.2894 23.2144C12.3378 23.3067 12.354 23.9909 12.3593 27.8737L12.069 28.1724H9.7949C8.38097 28.1724 7.4724 28.1507 7.40788 28.1181C7.34874 28.0909 7.2681 27.9823 7.23047 27.89C7.17671 27.7488 7.16058 27.2221 7.17133 25.5386C7.17671 24.3439 7.18746 23.3338 7.19284 23.2958Z" fill="#379936"/>
<path d="M19.6224 16.9748L19.773 16.8173L19.9235 16.6598H22.203C24.0255 16.6598 24.4986 16.6761 24.5846 16.7304C24.6438 16.7738 24.7244 16.877 24.762 16.9639C24.8158 17.0834 24.8266 17.6373 24.7997 21.6015L24.4771 21.8893L22.2084 21.8785C20.4934 21.873 19.9074 21.8568 19.8267 21.8079C19.7676 21.7699 19.6977 21.683 19.6654 21.6178C19.6332 21.5364 19.6117 20.6783 19.6224 16.9748Z" fill="#379936"/>
<path d="M13.4023 16.9205L13.5528 16.7901L13.7034 16.6598H18.2677L18.5903 16.9856V21.5472L18.2946 21.873L13.6873 21.9002L13.3754 21.5472L13.4023 16.9205Z" fill="#379936"/>
<path d="M7.23048 16.9096C7.25199 16.8553 7.33263 16.7738 7.4079 16.7358C7.51542 16.6815 8.03153 16.6652 12.0314 16.6598L12.354 16.9856V21.6015L12.2196 21.7373C12.1497 21.8133 12.0475 21.873 11.9938 21.8785C11.94 21.8839 10.9078 21.8785 9.69277 21.873C8.47775 21.8676 7.44553 21.8405 7.39714 21.8133C7.34338 21.7862 7.27887 21.7156 7.24661 21.6558C7.21435 21.5907 7.19285 20.6729 7.18747 19.2827C7.18747 18.0337 7.2036 16.9693 7.23048 16.9096Z" fill="#379936"/>
<path d="M13.44 10.6646C13.4776 10.5777 13.569 10.4745 13.6443 10.4365C13.7518 10.3767 14.2303 10.3659 18.3162 10.3876L18.5635 10.6374L18.5796 12.9019C18.5903 14.6451 18.5796 15.2044 18.5258 15.3239C18.4882 15.4108 18.3914 15.514 18.3108 15.552C18.1871 15.6117 17.7248 15.628 13.698 15.6009L13.4023 15.3022L13.3862 13.0594C13.3755 11.3379 13.3862 10.784 13.44 10.6646Z" fill="#379936"/>
<path d="M7.19278 10.6591L7.35406 10.5125L7.51535 10.3604H12.0313L12.3539 10.6863V15.3022L12.0958 15.6008H7.46159L7.1659 15.3022L7.19278 10.6591Z" fill="#379936"/>
<path d="M19.6655 4.33262C19.6924 4.27288 19.8 4.18599 19.8967 4.14255C20.0419 4.07739 20.4236 4.06652 24.5041 4.08825L24.7998 4.38692L24.8159 6.62971C24.8267 8.35117 24.8159 8.90508 24.7622 9.02455C24.7245 9.11143 24.6439 9.21461 24.5847 9.25806C24.4987 9.31236 24.031 9.32865 19.9344 9.32865L19.6118 9.00282V6.72203C19.6118 5.3101 19.6333 4.39778 19.6655 4.33262Z" fill="#379936"/>
<path d="M13.4991 4.27832C13.5529 4.20772 13.6496 4.13712 13.7142 4.10997C13.7787 4.08825 14.7894 4.06653 15.956 4.0611C17.2571 4.0611 18.1495 4.08282 18.2516 4.1154C18.3645 4.14798 18.4613 4.22944 18.5097 4.33262C18.5796 4.46838 18.5903 4.85395 18.5903 9.00283L18.2785 9.32865H15.999C14.1765 9.32865 13.7034 9.31236 13.6174 9.25806C13.5582 9.21461 13.4776 9.11143 13.44 9.02455C13.3862 8.90508 13.3755 8.35117 13.3862 6.63514C13.4023 4.55527 13.4077 4.38692 13.4991 4.27832Z" fill="#379936"/>
<path d="M8.48308 4.12083C8.67663 4.02851 9.01533 3.9199 9.23575 3.88189C9.45617 3.83845 9.77336 3.81672 9.93465 3.83302C10.0959 3.84388 10.3862 3.89818 10.5798 3.95249C10.7733 4.01222 11.0744 4.14255 11.2518 4.25116C11.4292 4.35434 11.6927 4.57156 11.8432 4.73447C11.9883 4.89196 12.1873 5.16891 12.284 5.34269C12.3754 5.51646 12.4937 5.80971 12.5367 5.98891C12.5851 6.16812 12.6227 6.48309 12.6227 6.69487C12.6227 6.90123 12.5851 7.2162 12.5421 7.38454C12.4991 7.55832 12.3862 7.85156 12.2948 8.0362C12.198 8.22627 11.9776 8.53037 11.7948 8.72044C11.569 8.95938 11.3432 9.12773 11.0636 9.26892C10.8163 9.39925 10.5045 9.50243 10.2572 9.54587C10.0099 9.58388 9.7196 9.60018 9.50456 9.57845C9.31101 9.55673 9.00995 9.49157 8.83254 9.4264C8.65512 9.36667 8.37556 9.2309 8.21428 9.12229C8.05299 9.01912 7.81106 8.81276 7.67666 8.677C7.54226 8.5358 7.35947 8.27514 7.26269 8.10137C7.1713 7.92216 7.05302 7.63435 7.01001 7.45514C6.96163 7.27593 6.924 6.94468 6.924 6.72203C6.924 6.49938 6.96163 6.17355 7.00464 5.99977C7.04765 5.83143 7.16055 5.53818 7.25194 5.34812C7.35409 5.14719 7.56376 4.87024 7.77881 4.65302C7.99923 4.43037 8.26266 4.22944 8.48308 4.12083Z" fill="#C91517"/>
</svg>
